<svg width="256" height="256" viewBox="0 0 256 256" xmlns="http://www.w3.org/2000/svg">
  <defs>
    <!-- Enhanced gradients matching the exact image -->
    <radialGradient id="bgGradient" cx="50%" cy="40%" r="65%">
      <stop offset="0%" style="stop-color:#9333EA;stop-opacity:1" />
      <stop offset="30%" style="stop-color:#7C3AED;stop-opacity:0.98" />
      <stop offset="60%" style="stop-color:#6D28D9;stop-opacity:0.95" />
      <stop offset="100%" style="stop-color:#581C87;stop-opacity:0.9" />
    </radialGradient>

    <radialGradient id="clockFace" cx="50%" cy="30%" r="70%">
      <stop offset="0%" style="stop-color:#60A5FA;stop-opacity:0.98" />
      <stop offset="25%" style="stop-color:#3B82F6;stop-opacity:0.95" />
      <stop offset="65%" style="stop-color:#2563EB;stop-opacity:0.9" />
      <stop offset="100%" style="stop-color:#1E40AF;stop-opacity:0.85" />
    </radialGradient>

    <linearGradient id="orangeRim" x1="15%" y1="15%" x2="85%" y2="85%">
      <stop offset="0%" style="stop-color:#FB923C;stop-opacity:0.95" />
      <stop offset="40%" style="stop-color:#F97316;stop-opacity:0.9" />
      <stop offset="100%" style="stop-color:#EA580C;stop-opacity:0.85" />
    </linearGradient>

    <radialGradient id="leftLeaf" cx="35%" cy="25%" r="75%">
      <stop offset="0%" style="stop-color:#4ADE80;stop-opacity:0.98" />
      <stop offset="50%" style="stop-color:#22C55E;stop-opacity:0.95" />
      <stop offset="100%" style="stop-color:#16A34A;stop-opacity:0.9" />
    </radialGradient>

    <radialGradient id="rightLeaf" cx="65%" cy="20%" r="80%">
      <stop offset="0%" style="stop-color:#4ADE80;stop-opacity:0.98" />
      <stop offset="50%" style="stop-color:#22C55E;stop-opacity:0.95" />
      <stop offset="100%" style="stop-color:#16A34A;stop-opacity:0.9" />
    </radialGradient>

    <!-- Precise filters for liquid glass effect -->
    <filter id="glassBlur" x="-50%" y="-50%" width="200%" height="200%">
      <feGaussianBlur in="SourceGraphic" stdDeviation="0.6"/>
      <feColorMatrix type="matrix" values="1 0 0 0 0  0 1 0 0 0  0 0 1 0 0  0 0 0 0.9 0"/>
    </filter>

    <filter id="shadowDeep" x="-100%" y="-100%" width="300%" height="300%">
      <feGaussianBlur in="SourceGraphic" stdDeviation="5"/>
      <feColorMatrix type="matrix" values="0 0 0 0 0  0 0 0 0 0  0 0 0 0 0  0 0 0 0.7 0"/>
      <feOffset dx="0" dy="6"/>
    </filter>

    <filter id="innerLight" x="-50%" y="-50%" width="200%" height="200%">
      <feGaussianBlur in="SourceGraphic" stdDeviation="1.5"/>
      <feColorMatrix type="matrix" values="1 0 0 0 0  0 1 0 0 0  0 0 1 0 0  0 0 0 0.3 0"/>
    </filter>
  </defs>

  <!-- Background liquid glass square -->
  <rect x="8" y="8" width="240" height="240" rx="68" ry="68"
        fill="url(#bgGradient)"
        filter="url(#shadowDeep)"/>

  <!-- Main glass highlight -->
  <rect x="8" y="8" width="240" height="240" rx="68" ry="68"
        fill="none"
        stroke="rgba(255,255,255,0.3)"
        stroke-width="1.5"
        opacity="0.7"/>

  <!-- Left tomato leaf -->
  <ellipse cx="108" cy="60" rx="17" ry="34"
           fill="url(#leftLeaf)"
           filter="url(#glassBlur)"
           transform="rotate(-30 108 60)"/>

  <!-- Right tomato leaf (larger) -->
  <ellipse cx="148" cy="53" rx="20" ry="38"
           fill="url(#rightLeaf)"
           filter="url(#glassBlur)"
           transform="rotate(20 148 53)"/>

  <!-- Clock outer rim (orange) -->
  <circle cx="128" cy="128" r="84"
          fill="url(#orangeRim)"
          filter="url(#shadowDeep)"/>

  <!-- Clock face (blue) -->
  <circle cx="128" cy="128" r="74"
          fill="url(#clockFace)"
          filter="url(#glassBlur)"/>

  <!-- Hour markers - precise white ovals -->
  <g fill="rgba(255,255,255,0.9)" filter="url(#glassBlur)">
    <!-- Cardinal directions -->
    <ellipse cx="128" cy="66" rx="3.5" ry="11"/>   <!-- 12 o'clock -->
    <ellipse cx="190" cy="128" rx="11" ry="3.5"/>  <!-- 3 o'clock -->
    <ellipse cx="128" cy="190" rx="3.5" ry="11"/>  <!-- 6 o'clock -->
    <ellipse cx="66" cy="128" rx="11" ry="3.5"/>   <!-- 9 o'clock -->

    <!-- Intermediate markers -->
    <ellipse cx="158" cy="76" rx="2.5" ry="8" transform="rotate(30 158 76)"/>   <!-- 1 o'clock -->
    <ellipse cx="180" cy="98" rx="2.5" ry="8" transform="rotate(60 180 98)"/>   <!-- 2 o'clock -->
    <ellipse cx="180" cy="158" rx="2.5" ry="8" transform="rotate(120 180 158)"/> <!-- 4 o'clock -->
    <ellipse cx="158" cy="180" rx="2.5" ry="8" transform="rotate(150 158 180)"/> <!-- 5 o'clock -->
    <ellipse cx="98" cy="180" rx="2.5" ry="8" transform="rotate(210 98 180)"/>  <!-- 7 o'clock -->
    <ellipse cx="76" cy="158" rx="2.5" ry="8" transform="rotate(240 76 158)"/>  <!-- 8 o'clock -->
    <ellipse cx="76" cy="98" rx="2.5" ry="8" transform="rotate(300 76 98)"/>    <!-- 10 o'clock -->
    <ellipse cx="98" cy="76" rx="2.5" ry="8" transform="rotate(330 98 76)"/>    <!-- 11 o'clock -->
  </g>

  <!-- Clock hands forming perfect checkmark -->
  <g fill="rgba(255,255,255,0.95)" filter="url(#glassBlur)">
    <!-- Short hand (left stroke of checkmark) -->
    <rect x="125" y="108" width="4.5" height="30" rx="2.25"
          transform="rotate(45 128 128)"/>
    <!-- Long hand (right stroke of checkmark) -->
    <rect x="126" y="82" width="4" height="50" rx="2"
          transform="rotate(135 128 128)"/>
  </g>

  <!-- Center hub -->
  <circle cx="128" cy="128" r="6"
          fill="rgba(255,255,255,0.95)"
          filter="url(#glassBlur)"/>

  <!-- Inner glass highlights -->
  <circle cx="128" cy="128" r="74"
          fill="none"
          stroke="rgba(255,255,255,0.12)"
          stroke-width="1"/>

  <!-- Subtle inner glow -->
  <circle cx="115" cy="105" r="28"
          fill="rgba(255,255,255,0.06)"
          filter="url(#innerLight)"/>

  <!-- Final outer highlight -->
  <rect x="8" y="8" width="240" height="240" rx="68" ry="68"
        fill="none"
        stroke="rgba(255,255,255,0.2)"
        stroke-width="1"/>
</svg>