<svg width="256" height="256" viewBox="0 0 256 256" xmlns="http://www.w3.org/2000/svg">
  <defs>
    <!-- Gradients for liquid glass effect -->
    <linearGradient id="backgroundGradient" x1="0%" y1="0%" x2="100%" y2="100%">
      <stop offset="0%" style="stop-color:#8B5CF6;stop-opacity:1" />
      <stop offset="50%" style="stop-color:#A78BFA;stop-opacity:0.9" />
      <stop offset="100%" style="stop-color:#C4B5FD;stop-opacity:0.8" />
    </linearGradient>

    <linearGradient id="clockGradient" x1="0%" y1="0%" x2="100%" y2="100%">
      <stop offset="0%" style="stop-color:#60A5FA;stop-opacity:0.9" />
      <stop offset="50%" style="stop-color:#3B82F6;stop-opacity:0.8" />
      <stop offset="100%" style="stop-color:#1E40AF;stop-opacity:0.7" />
    </linearGradient>

    <linearGradient id="leafGradient" x1="0%" y1="0%" x2="100%" y2="100%">
      <stop offset="0%" style="stop-color:#10B981;stop-opacity:0.9" />
      <stop offset="50%" style="stop-color:#059669;stop-opacity:0.8" />
      <stop offset="100%" style="stop-color:#047857;stop-opacity:0.7" />
    </linearGradient>

    <linearGradient id="rimGradient" x1="0%" y1="0%" x2="100%" y2="100%">
      <stop offset="0%" style="stop-color:#F59E0B;stop-opacity:0.8" />
      <stop offset="50%" style="stop-color:#D97706;stop-opacity:0.7" />
      <stop offset="100%" style="stop-color:#B45309;stop-opacity:0.6" />
    </linearGradient>

    <!-- Filters for glass effect -->
    <filter id="glass" x="-50%" y="-50%" width="200%" height="200%">
      <feGaussianBlur in="SourceGraphic" stdDeviation="1"/>
      <feColorMatrix type="matrix" values="1 0 0 0 0  0 1 0 0 0  0 0 1 0 0  0 0 0 0.8 0"/>
    </filter>

    <filter id="glow" x="-50%" y="-50%" width="200%" height="200%">
      <feGaussianBlur in="SourceGraphic" stdDeviation="3"/>
      <feColorMatrix type="matrix" values="1 0 0 0 0  0 1 0 0 0  0 0 1 0 0  0 0 0 0.6 0"/>
    </filter>
  </defs>

  <!-- Rounded square background with glass effect -->
  <rect x="8" y="8" width="240" height="240" rx="60" ry="60"
        fill="url(#backgroundGradient)"
        filter="url(#glass)"
        style="backdrop-filter: blur(20px)"/>

  <!-- Tomato leaves -->
  <ellipse cx="110" cy="65" rx="18" ry="35"
           fill="url(#leafGradient)"
           filter="url(#glass)"
           transform="rotate(-25 110 65)"/>
  <ellipse cx="145" cy="58" rx="20" ry="38"
           fill="url(#leafGradient)"
           filter="url(#glass)"
           transform="rotate(15 145 58)"/>

  <!-- Clock face outer rim -->
  <circle cx="128" cy="150" r="85"
          fill="url(#rimGradient)"
          filter="url(#glow)"/>

  <!-- Clock face -->
  <circle cx="128" cy="150" r="75"
          fill="url(#clockGradient)"
          filter="url(#glass)"/>

  <!-- Clock hour markers -->
  <g fill="rgba(255,255,255,0.8)" filter="url(#glass)">
    <!-- 12 o'clock -->
    <ellipse cx="128" cy="85" rx="4" ry="12"/>
    <!-- 3 o'clock -->
    <ellipse cx="193" cy="150" rx="12" ry="4"/>
    <!-- 6 o'clock -->
    <ellipse cx="128" cy="215" rx="4" ry="12"/>
    <!-- 9 o'clock -->
    <ellipse cx="63" cy="150" rx="12" ry="4"/>

    <!-- Other hour markers (smaller) -->
    <ellipse cx="159" cy="95" rx="3" ry="8" transform="rotate(30 159 95)"/>
    <ellipse cx="183" cy="120" rx="3" ry="8" transform="rotate(60 183 120)"/>
    <ellipse cx="183" cy="180" rx="3" ry="8" transform="rotate(120 183 180)"/>
    <ellipse cx="159" cy="205" rx="3" ry="8" transform="rotate(150 159 205)"/>
    <ellipse cx="97" cy="205" rx="3" ry="8" transform="rotate(210 97 205)"/>
    <ellipse cx="73" cy="180" rx="3" ry="8" transform="rotate(240 73 180)"/>
    <ellipse cx="73" cy="120" rx="3" ry="8" transform="rotate(300 73 120)"/>
    <ellipse cx="97" cy="95" rx="3" ry="8" transform="rotate(330 97 95)"/>
  </g>

  <!-- Clock hands (showing check mark position) -->
  <g fill="rgba(255,255,255,0.9)" filter="url(#glass)">
    <!-- Hour hand (pointing to 4) -->
    <rect x="125" y="125" width="6" height="35" rx="3"
          transform="rotate(45 128 150)"/>
    <!-- Minute hand (pointing to 7) -->
    <rect x="126" y="100" width="4" height="55" rx="2"
          transform="rotate(135 128 150)"/>
  </g>

  <!-- Center dot -->
  <circle cx="128" cy="150" r="6"
          fill="rgba(255,255,255,0.9)"
          filter="url(#glass)"/>

  <!-- Glass highlight overlay -->
  <rect x="8" y="8" width="240" height="240" rx="60" ry="60"
        fill="none"
        stroke="rgba(255,255,255,0.3)"
        stroke-width="2"/>

  <!-- Inner glass highlight -->
  <circle cx="128" cy="150" r="75"
          fill="none"
          stroke="rgba(255,255,255,0.2)"
          stroke-width="1"/>
</svg>